<svg xmlns="http://www.w3.org/2000/svg" xmlns:xlink="http://www.w3.org/1999/xlink" contentStyleType="text/css" data-diagram-type="ACTIVITY" height="986px" preserveAspectRatio="none" style="width:899px;height:986px;background:#FFFFFF;" version="1.1" viewBox="0 0 899 986" width="899px" zoomAndPan="magnify"><title>Sync Job Execution Flow</title><defs/><g><g class="title" data-source-line="2"><text fill="#000000" font-family="sans-serif" font-size="14" font-weight="bold" lengthAdjust="spacing" textLength="174.2275" x="361.087" y="33.5352">Sync Job Execution Flow</text></g><ellipse cx="302.4264" cy="57.4883" fill="#222222" rx="10" ry="10" style="stroke:#222222;stroke-width:1;"/><rect fill="#F1F1F1" height="34.1328" rx="12.5" ry="12.5" style="stroke:#181818;stroke-width:0.5;" width="172.2793" x="216.2867" y="87.4883"/><text fill="#000000" font-family="sans-serif" font-size="12" lengthAdjust="spacing" textLength="152.2793" x="226.2867" y="109.0898">SyncEngine.RunAsync(job)</text><rect fill="#F1F1F1" height="34.1328" rx="12.5" ry="12.5" style="stroke:#181818;stroke-width:0.5;" width="210.5234" x="197.1647" y="141.6211"/><text fill="#000000" font-family="sans-serif" font-size="12" lengthAdjust="spacing" textLength="190.5234" x="207.1647" y="163.2227">JobStateStore.SetStatus(Running)</text><path d="M381.2614,200.165 L381.2614,208.8203 L361.2614,212.8203 L381.2614,216.8203 L381.2614,225.4756 A0,0 0 0 0 381.2614,225.4756 L621.8458,225.4756 A0,0 0 0 0 621.8458,225.4756 L621.8458,210.165 L611.8458,200.165 L381.2614,200.165 A0,0 0 0 0 381.2614,200.165" fill="#FEFFDD" style="stroke:#181818;stroke-width:0.5;"/><path d="M611.8458,200.165 L611.8458,210.165 L621.8458,210.165 L611.8458,200.165" fill="#FEFFDD" style="stroke:#181818;stroke-width:0.5;"/><text fill="#000000" font-family="sans-serif" font-size="13" lengthAdjust="spacing" textLength="219.5845" x="387.2614" y="217.7334">ICheckpointStore.LoadAsync(jobId)</text><rect fill="#F1F1F1" height="34.1328" rx="12.5" ry="12.5" style="stroke:#181818;stroke-width:0.5;" width="117.6699" x="243.5914" y="195.7539"/><text fill="#000000" font-family="sans-serif" font-size="12" lengthAdjust="spacing" textLength="97.6699" x="253.5914" y="217.3555">Load Checkpoint</text><polygon fill="#F1F1F1" points="252.4591,249.8867,352.3937,249.8867,364.3937,261.8867,352.3937,273.8867,252.4591,273.8867,240.4591,261.8867,252.4591,249.8867" style="stroke:#181818;stroke-width:0.5;"/><text fill="#000000" font-family="sans-serif" font-size="11" lengthAdjust="spacing" textLength="99.9346" x="252.4591" y="266.0439">Checkpoint exists?</text><text fill="#000000" font-family="sans-serif" font-size="11" lengthAdjust="spacing" textLength="13.5835" x="226.8756" y="259.5664">no</text><text fill="#000000" font-family="sans-serif" font-size="11" lengthAdjust="spacing" textLength="17.4829" x="364.3937" y="259.5664">yes</text><rect fill="#F1F1F1" height="34.1328" rx="12.5" ry="12.5" style="stroke:#181818;stroke-width:0.5;" width="112.4375" x="23.5625" y="283.8867"/><text fill="#000000" font-family="sans-serif" font-size="12" lengthAdjust="spacing" textLength="92.4375" x="33.5625" y="305.4883">Bootstrap mode</text><path d="M168.5625,386.4307 L168.5625,395.0859 L148.5625,399.0859 L168.5625,403.0859 L168.5625,411.7412 A0,0 0 0 0 168.5625,411.7412 L394.5664,411.7412 A0,0 0 0 0 394.5664,411.7412 L394.5664,396.4307 L384.5664,386.4307 L168.5625,386.4307 A0,0 0 0 0 168.5625,386.4307" fill="#FEFFDD" style="stroke:#181818;stroke-width:0.5;"/><path d="M384.5664,386.4307 L384.5664,396.4307 L394.5664,396.4307 L384.5664,386.4307" fill="#FEFFDD" style="stroke:#181818;stroke-width:0.5;"/><text fill="#000000" font-family="sans-serif" font-size="13" lengthAdjust="spacing" textLength="205.0039" x="174.5625" y="403.999">IDataSource.ReadSnapshotAsync</text><rect fill="#F1F1F1" height="34.1328" rx="12.5" ry="12.5" style="stroke:#181818;stroke-width:0.5;" width="137.5625" x="11" y="382.0195"/><text fill="#000000" font-family="sans-serif" font-size="12" lengthAdjust="spacing" textLength="117.5625" x="21" y="403.6211">Read snapshot page</text><path d="M160.3125,436.1523 L160.3125,460.1182 L140.3125,464.1182 L160.3125,468.1182 L160.3125,492.084 A0,0 0 0 0 160.3125,492.084 L283.3447,492.084 A0,0 0 0 0 283.3447,492.084 L283.3447,446.1523 L273.3447,436.1523 L160.3125,436.1523 A0,0 0 0 0 160.3125,436.1523" fill="#FEFFDD" style="stroke:#181818;stroke-width:0.5;"/><path d="M273.3447,436.1523 L273.3447,446.1523 L283.3447,446.1523 L273.3447,436.1523" fill="#FEFFDD" style="stroke:#181818;stroke-width:0.5;"/><text fill="#000000" font-family="sans-serif" font-size="13" lengthAdjust="spacing" textLength="96.8525" x="166.3125" y="453.7207">ChangePipeline</text><text fill="#000000" font-family="sans-serif" font-size="13" lengthAdjust="spacing" textLength="96.2432" x="166.3125" y="469.0313">- IMappingPlan</text><text fill="#000000" font-family="sans-serif" font-size="13" lengthAdjust="spacing" textLength="102.0322" x="166.3125" y="484.3418">- ITransformer[]</text><rect fill="#F1F1F1" height="34.1328" rx="12.5" ry="12.5" style="stroke:#181818;stroke-width:0.5;" width="121.0625" x="19.25" y="447.0518"/><text fill="#000000" font-family="sans-serif" font-size="12" lengthAdjust="spacing" textLength="101.0625" x="29.25" y="468.6533">Map &amp; Transform</text><path d="M149.9004,531.4951 L149.9004,540.1504 L129.9004,544.1504 L149.9004,548.1504 L149.9004,556.8057 A0,0 0 0 0 149.9004,556.8057 L327.002,556.8057 A0,0 0 0 0 327.002,556.8057 L327.002,541.4951 L317.002,531.4951 L149.9004,531.4951 A0,0 0 0 0 149.9004,531.4951" fill="#FEFFDD" style="stroke:#181818;stroke-width:0.5;"/><path d="M317.002,531.4951 L317.002,541.4951 L327.002,541.4951 L317.002,531.4951" fill="#FEFFDD" style="stroke:#181818;stroke-width:0.5;"/><text fill="#000000" font-family="sans-serif" font-size="13" lengthAdjust="spacing" textLength="156.1016" x="155.9004" y="549.0635">IDataTarget.UpsertAsync</text><rect fill="#F1F1F1" height="34.1328" rx="12.5" ry="12.5" style="stroke:#181818;stroke-width:0.5;" width="100.2383" x="29.6621" y="527.084"/><text fill="#000000" font-family="sans-serif" font-size="12" lengthAdjust="spacing" textLength="80.2383" x="39.6621" y="548.6855">Apply upserts</text><path d="M157.8633,600.6279 L157.8633,609.2832 L137.8633,613.2832 L157.8633,617.2832 L157.8633,625.9385 A0,0 0 0 0 157.8633,625.9385 L369.5596,625.9385 A0,0 0 0 0 369.5596,625.9385 L369.5596,610.6279 L359.5596,600.6279 L157.8633,600.6279 A0,0 0 0 0 157.8633,600.6279" fill="#FEFFDD" style="stroke:#181818;stroke-width:0.5;"/><path d="M359.5596,600.6279 L359.5596,610.6279 L369.5596,610.6279 L359.5596,600.6279" fill="#FEFFDD" style="stroke:#181818;stroke-width:0.5;"/><text fill="#000000" font-family="sans-serif" font-size="13" lengthAdjust="spacing" textLength="190.6963" x="163.8633" y="618.1963">IJobStateStore.UpdateProgress</text><rect fill="#F1F1F1" height="34.1328" rx="12.5" ry="12.5" style="stroke:#181818;stroke-width:0.5;" width="116.1641" x="21.6992" y="596.2168"/><text fill="#000000" font-family="sans-serif" font-size="12" lengthAdjust="spacing" textLength="96.1641" x="31.6992" y="617.8184">Update progress</text><polygon fill="#F1F1F1" points="79.7813,338.0195,91.7813,350.0195,79.7813,362.0195,67.7813,350.0195,79.7813,338.0195" style="stroke:#181818;stroke-width:0.5;"/><polygon fill="#F1F1F1" points="46.4939,663.3496,113.0686,663.3496,125.0686,675.3496,113.0686,687.3496,46.4939,687.3496,34.4939,675.3496,46.4939,663.3496" style="stroke:#181818;stroke-width:0.5;"/><text fill="#000000" font-family="sans-serif" font-size="11" lengthAdjust="spacing" textLength="66.5747" x="46.4939" y="679.5068">More pages?</text><rect fill="#F1F1F1" height="34.1328" rx="12.5" ry="12.5" style="stroke:#181818;stroke-width:0.5;" width="125.1758" x="462.4836" y="283.8867"/><text fill="#000000" font-family="sans-serif" font-size="12" lengthAdjust="spacing" textLength="105.1758" x="472.4836" y="305.4883">Incremental mode</text><path d="M595.1731,386.4307 L595.1731,395.0859 L575.1731,399.0859 L595.1731,403.0859 L595.1731,411.7412 A0,0 0 0 0 595.1731,411.7412 L817.489,411.7412 A0,0 0 0 0 817.489,411.7412 L817.489,396.4307 L807.489,386.4307 L595.1731,386.4307 A0,0 0 0 0 595.1731,386.4307" fill="#FEFFDD" style="stroke:#181818;stroke-width:0.5;"/><path d="M807.489,386.4307 L807.489,396.4307 L817.489,396.4307 L807.489,386.4307" fill="#FEFFDD" style="stroke:#181818;stroke-width:0.5;"/><text fill="#000000" font-family="sans-serif" font-size="13" lengthAdjust="spacing" textLength="201.3159" x="601.1731" y="403.999">IDataSource.ReadChangesAsync</text><rect fill="#F1F1F1" height="34.1328" rx="12.5" ry="12.5" style="stroke:#181818;stroke-width:0.5;" width="100.2031" x="474.97" y="382.0195"/><text fill="#000000" font-family="sans-serif" font-size="12" lengthAdjust="spacing" textLength="80.2031" x="484.97" y="403.6211">Read changes</text><path d="M605.6028,440.5635 L605.6028,449.2188 L585.6028,453.2188 L605.6028,457.2188 L605.6028,465.874 A0,0 0 0 0 605.6028,465.874 L723.4553,465.874 A0,0 0 0 0 723.4553,465.874 L723.4553,450.5635 L713.4553,440.5635 L605.6028,440.5635 A0,0 0 0 0 605.6028,440.5635" fill="#FEFFDD" style="stroke:#181818;stroke-width:0.5;"/><path d="M713.4553,440.5635 L713.4553,450.5635 L723.4553,450.5635 L713.4553,440.5635" fill="#FEFFDD" style="stroke:#181818;stroke-width:0.5;"/><text fill="#000000" font-family="sans-serif" font-size="13" lengthAdjust="spacing" textLength="96.8525" x="611.6028" y="458.1318">ChangePipeline</text><rect fill="#F1F1F1" height="34.1328" rx="12.5" ry="12.5" style="stroke:#181818;stroke-width:0.5;" width="121.0625" x="464.5403" y="436.1523"/><text fill="#000000" font-family="sans-serif" font-size="12" lengthAdjust="spacing" textLength="101.0625" x="474.5403" y="457.7539">Map &amp; Transform</text><path d="M603.5667,553.7627 L603.5667,570.0732 L583.5667,574.0732 L603.5667,578.0732 L603.5667,594.3838 A0,0 0 0 0 603.5667,594.3838 L845.4016,594.3838 A0,0 0 0 0 845.4016,594.3838 L845.4016,563.7627 L835.4016,553.7627 L603.5667,553.7627 A0,0 0 0 0 603.5667,553.7627" fill="#FEFFDD" style="stroke:#181818;stroke-width:0.5;"/><path d="M835.4016,553.7627 L835.4016,563.7627 L845.4016,563.7627 L835.4016,553.7627" fill="#FEFFDD" style="stroke:#181818;stroke-width:0.5;"/><text fill="#000000" font-family="sans-serif" font-size="13" lengthAdjust="spacing" textLength="157.6504" x="609.5667" y="571.3311">IConflictResolver.Resolve</text><text fill="#000000" font-family="sans-serif" font-size="13" lengthAdjust="spacing" textLength="220.835" x="609.5667" y="586.6416">(may call IDataTarget.TryGetAsync)</text><rect fill="#F1F1F1" height="34.1328" rx="12.5" ry="12.5" style="stroke:#181818;stroke-width:0.5;" width="116.9902" x="466.5764" y="557.0068"/><text fill="#000000" font-family="sans-serif" font-size="12" lengthAdjust="spacing" textLength="96.9902" x="476.5764" y="578.6084">Resolve conflicts</text><polygon fill="#F1F1F1" points="450.5664,505.2852,599.5767,505.2852,611.5767,517.2852,599.5767,529.2852,450.5664,529.2852,438.5664,517.2852,450.5664,505.2852" style="stroke:#181818;stroke-width:0.5;"/><text fill="#000000" font-family="sans-serif" font-size="11" lengthAdjust="spacing" textLength="17.4829" x="529.0715" y="539.9199">yes</text><text fill="#000000" font-family="sans-serif" font-size="11" lengthAdjust="spacing" textLength="149.0103" x="450.5664" y="521.4424">Conflict resolution enabled?</text><polygon fill="#F1F1F1" points="525.0715,618.8613,537.0715,630.8613,525.0715,642.8613,513.0715,630.8613,525.0715,618.8613" style="stroke:#181818;stroke-width:0.5;"/><path d="M597.5081,667.2725 L597.5081,675.9277 L577.5081,679.9277 L597.5081,683.9277 L597.5081,692.583 A0,0 0 0 0 597.5081,692.583 L823.5374,692.583 A0,0 0 0 0 823.5374,692.583 L823.5374,677.2725 L813.5374,667.2725 L597.5081,667.2725 A0,0 0 0 0 597.5081,667.2725" fill="#FEFFDD" style="stroke:#181818;stroke-width:0.5;"/><path d="M813.5374,667.2725 L813.5374,677.2725 L823.5374,677.2725 L813.5374,667.2725" fill="#FEFFDD" style="stroke:#181818;stroke-width:0.5;"/><text fill="#000000" font-family="sans-serif" font-size="13" lengthAdjust="spacing" textLength="205.0293" x="603.5081" y="684.8408">IDataTarget.ApplyChangesAsync</text><rect fill="#F1F1F1" height="34.1328" rx="12.5" ry="12.5" style="stroke:#181818;stroke-width:0.5;" width="104.873" x="472.635" y="662.8613"/><text fill="#000000" font-family="sans-serif" font-size="12" lengthAdjust="spacing" textLength="84.873" x="482.635" y="684.4629">Apply changes</text><path d="M601.8469,721.4053 L601.8469,730.0605 L581.8469,734.0605 L601.8469,738.0605 L601.8469,746.7158 A0,0 0 0 0 601.8469,746.7158 L799.8005,746.7158 A0,0 0 0 0 799.8005,746.7158 L799.8005,731.4053 L789.8005,721.4053 L601.8469,721.4053 A0,0 0 0 0 601.8469,721.4053" fill="#FEFFDD" style="stroke:#181818;stroke-width:0.5;"/><path d="M789.8005,721.4053 L789.8005,731.4053 L799.8005,731.4053 L789.8005,721.4053" fill="#FEFFDD" style="stroke:#181818;stroke-width:0.5;"/><text fill="#000000" font-family="sans-serif" font-size="13" lengthAdjust="spacing" textLength="176.9536" x="607.8469" y="738.9736">ICheckpointStore.SaveAsync</text><rect fill="#F1F1F1" height="34.1328" rx="12.5" ry="12.5" style="stroke:#181818;stroke-width:0.5;" width="113.5508" x="468.2961" y="716.9941"/><text fill="#000000" font-family="sans-serif" font-size="12" lengthAdjust="spacing" textLength="93.5508" x="478.2961" y="738.5957">Save checkpoint</text><path d="M603.1536,775.5381 L603.1536,784.1934 L583.1536,788.1934 L603.1536,792.1934 L603.1536,800.8486 A0,0 0 0 0 603.1536,800.8486 L814.8499,800.8486 A0,0 0 0 0 814.8499,800.8486 L814.8499,785.5381 L804.8499,775.5381 L603.1536,775.5381 A0,0 0 0 0 603.1536,775.5381" fill="#FEFFDD" style="stroke:#181818;stroke-width:0.5;"/><path d="M804.8499,775.5381 L804.8499,785.5381 L814.8499,785.5381 L804.8499,775.5381" fill="#FEFFDD" style="stroke:#181818;stroke-width:0.5;"/><text fill="#000000" font-family="sans-serif" font-size="13" lengthAdjust="spacing" textLength="190.6963" x="609.1536" y="793.1064">IJobStateStore.UpdateProgress</text><rect fill="#F1F1F1" height="34.1328" rx="12.5" ry="12.5" style="stroke:#181818;stroke-width:0.5;" width="116.1641" x="466.9895" y="771.127"/><text fill="#000000" font-family="sans-serif" font-size="12" lengthAdjust="spacing" textLength="96.1641" x="476.9895" y="792.7285">Update progress</text><polygon fill="#F1F1F1" points="525.0715,338.0195,537.0715,350.0195,525.0715,362.0195,513.0715,350.0195,525.0715,338.0195" style="stroke:#181818;stroke-width:0.5;"/><polygon fill="#F1F1F1" points="458.1772,825.2598,591.9658,825.2598,603.9658,837.2598,591.9658,849.2598,458.1772,849.2598,446.1772,837.2598,458.1772,825.2598" style="stroke:#181818;stroke-width:0.5;"/><text fill="#000000" font-family="sans-serif" font-size="11" lengthAdjust="spacing" textLength="133.7886" x="458.1772" y="841.417">Continue &amp; not cancelled</text><polygon fill="#F1F1F1" points="302.4264,855.2598,314.4264,867.2598,302.4264,879.2598,290.4264,867.2598,302.4264,855.2598" style="stroke:#181818;stroke-width:0.5;"/><rect fill="#F1F1F1" height="34.1328" rx="12.5" ry="12.5" style="stroke:#181818;stroke-width:0.5;" width="209.8613" x="197.4957" y="899.2598"/><text fill="#000000" font-family="sans-serif" font-size="12" lengthAdjust="spacing" textLength="189.8613" x="207.4957" y="920.8613">JobStateStore.SetStatus(Stopped)</text><ellipse cx="302.4264" cy="964.3926" fill="none" rx="11" ry="11" style="stroke:#222222;stroke-width:1;"/><ellipse cx="302.4264" cy="964.3926" fill="#222222" rx="6" ry="6" style="stroke:#222222;stroke-width:1;"/><line style="stroke:#181818;stroke-width:1;" x1="302.4264" x2="302.4264" y1="67.4883" y2="87.4883"/><polygon fill="#181818" points="298.4264,77.4883,302.4264,87.4883,306.4264,77.4883,302.4264,81.4883" style="stroke:#181818;stroke-width:1;"/><line style="stroke:#181818;stroke-width:1;" x1="302.4264" x2="302.4264" y1="121.6211" y2="141.6211"/><polygon fill="#181818" points="298.4264,131.6211,302.4264,141.6211,306.4264,131.6211,302.4264,135.6211" style="stroke:#181818;stroke-width:1;"/><line style="stroke:#181818;stroke-width:1;" x1="302.4264" x2="302.4264" y1="175.7539" y2="195.7539"/><polygon fill="#181818" points="298.4264,185.7539,302.4264,195.7539,306.4264,185.7539,302.4264,189.7539" style="stroke:#181818;stroke-width:1;"/><line style="stroke:#181818;stroke-width:1;" x1="79.7813" x2="79.7813" y1="416.1523" y2="447.0518"/><polygon fill="#181818" points="75.7813,437.0518,79.7813,447.0518,83.7813,437.0518,79.7813,441.0518" style="stroke:#181818;stroke-width:1;"/><line style="stroke:#181818;stroke-width:1;" x1="79.7813" x2="79.7813" y1="481.1846" y2="527.084"/><polygon fill="#181818" points="75.7813,517.084,79.7813,527.084,83.7813,517.084,79.7813,521.084" style="stroke:#181818;stroke-width:1;"/><line style="stroke:#181818;stroke-width:1;" x1="79.7813" x2="79.7813" y1="561.2168" y2="596.2168"/><polygon fill="#181818" points="75.7813,586.2168,79.7813,596.2168,83.7813,586.2168,79.7813,590.2168" style="stroke:#181818;stroke-width:1;"/><line style="stroke:#181818;stroke-width:1;" x1="79.7813" x2="79.7813" y1="362.0195" y2="382.0195"/><polygon fill="#181818" points="75.7813,372.0195,79.7813,382.0195,83.7813,372.0195,79.7813,376.0195" style="stroke:#181818;stroke-width:1;"/><line style="stroke:#181818;stroke-width:1;" x1="125.0686" x2="406.5664" y1="675.3496" y2="675.3496"/><polygon fill="#181818" points="402.5664,508.6846,406.5664,498.6846,410.5664,508.6846,406.5664,504.6846" style="stroke:#181818;stroke-width:1;"/><line style="stroke:#181818;stroke-width:1;" x1="406.5664" x2="406.5664" y1="350.0195" y2="675.3496"/><line style="stroke:#181818;stroke-width:1;" x1="406.5664" x2="91.7813" y1="350.0195" y2="350.0195"/><polygon fill="#181818" points="101.7813,346.0195,91.7813,350.0195,101.7813,354.0195,97.7813,350.0195" style="stroke:#181818;stroke-width:1;"/><line style="stroke:#181818;stroke-width:1;" x1="79.7813" x2="79.7813" y1="630.3496" y2="663.3496"/><polygon fill="#181818" points="75.7813,653.3496,79.7813,663.3496,83.7813,653.3496,79.7813,657.3496" style="stroke:#181818;stroke-width:1;"/><line style="stroke:#181818;stroke-width:1;" x1="79.7813" x2="79.7813" y1="318.0195" y2="338.0195"/><polygon fill="#181818" points="75.7813,328.0195,79.7813,338.0195,83.7813,328.0195,79.7813,332.0195" style="stroke:#181818;stroke-width:1;"/><line style="stroke:#181818;stroke-width:1;" x1="525.0715" x2="525.0715" y1="416.1523" y2="436.1523"/><polygon fill="#181818" points="521.0715,426.1523,525.0715,436.1523,529.0715,426.1523,525.0715,430.1523" style="stroke:#181818;stroke-width:1;"/><line style="stroke:#181818;stroke-width:1;" x1="525.0715" x2="525.0715" y1="529.2852" y2="557.0068"/><polygon fill="#181818" points="521.0715,547.0068,525.0715,557.0068,529.0715,547.0068,525.0715,551.0068" style="stroke:#181818;stroke-width:1;"/><line style="stroke:#181818;stroke-width:1;" x1="611.5767" x2="855.4016" y1="517.2852" y2="517.2852"/><polygon fill="#181818" points="851.4016,564.0732,855.4016,574.0732,859.4016,564.0732,855.4016,568.0732" style="stroke:#181818;stroke-width:1;"/><line style="stroke:#181818;stroke-width:1;" x1="855.4016" x2="855.4016" y1="517.2852" y2="630.8613"/><line style="stroke:#181818;stroke-width:1;" x1="855.4016" x2="537.0715" y1="630.8613" y2="630.8613"/><polygon fill="#181818" points="547.0715,626.8613,537.0715,630.8613,547.0715,634.8613,543.0715,630.8613" style="stroke:#181818;stroke-width:1;"/><line style="stroke:#181818;stroke-width:1;" x1="525.0715" x2="525.0715" y1="591.1396" y2="618.8613"/><polygon fill="#181818" points="521.0715,608.8613,525.0715,618.8613,529.0715,608.8613,525.0715,612.8613" style="stroke:#181818;stroke-width:1;"/><line style="stroke:#181818;stroke-width:1;" x1="525.0715" x2="525.0715" y1="470.2852" y2="505.2852"/><polygon fill="#181818" points="521.0715,495.2852,525.0715,505.2852,529.0715,495.2852,525.0715,499.2852" style="stroke:#181818;stroke-width:1;"/><line style="stroke:#181818;stroke-width:1;" x1="525.0715" x2="525.0715" y1="642.8613" y2="662.8613"/><polygon fill="#181818" points="521.0715,652.8613,525.0715,662.8613,529.0715,652.8613,525.0715,656.8613" style="stroke:#181818;stroke-width:1;"/><line style="stroke:#181818;stroke-width:1;" x1="525.0715" x2="525.0715" y1="696.9941" y2="716.9941"/><polygon fill="#181818" points="521.0715,706.9941,525.0715,716.9941,529.0715,706.9941,525.0715,710.9941" style="stroke:#181818;stroke-width:1;"/><line style="stroke:#181818;stroke-width:1;" x1="525.0715" x2="525.0715" y1="751.127" y2="771.127"/><polygon fill="#181818" points="521.0715,761.127,525.0715,771.127,529.0715,761.127,525.0715,765.127" style="stroke:#181818;stroke-width:1;"/><line style="stroke:#181818;stroke-width:1;" x1="525.0715" x2="525.0715" y1="362.0195" y2="382.0195"/><polygon fill="#181818" points="521.0715,372.0195,525.0715,382.0195,529.0715,372.0195,525.0715,376.0195" style="stroke:#181818;stroke-width:1;"/><line style="stroke:#181818;stroke-width:1;" x1="603.9658" x2="873.4016" y1="837.2598" y2="837.2598"/><polygon fill="#181818" points="869.4016,618.6396,873.4016,608.6396,877.4016,618.6396,873.4016,614.6396" style="stroke:#181818;stroke-width:1;"/><line style="stroke:#181818;stroke-width:1;" x1="873.4016" x2="873.4016" y1="350.0195" y2="837.2598"/><line style="stroke:#181818;stroke-width:1;" x1="873.4016" x2="537.0715" y1="350.0195" y2="350.0195"/><polygon fill="#181818" points="547.0715,346.0195,537.0715,350.0195,547.0715,354.0195,543.0715,350.0195" style="stroke:#181818;stroke-width:1;"/><line style="stroke:#181818;stroke-width:1;" x1="525.0715" x2="525.0715" y1="805.2598" y2="825.2598"/><polygon fill="#181818" points="521.0715,815.2598,525.0715,825.2598,529.0715,815.2598,525.0715,819.2598" style="stroke:#181818;stroke-width:1;"/><line style="stroke:#181818;stroke-width:1;" x1="525.0715" x2="525.0715" y1="318.0195" y2="338.0195"/><polygon fill="#181818" points="521.0715,328.0195,525.0715,338.0195,529.0715,328.0195,525.0715,332.0195" style="stroke:#181818;stroke-width:1;"/><line style="stroke:#181818;stroke-width:1;" x1="240.4591" x2="79.7813" y1="261.8867" y2="261.8867"/><line style="stroke:#181818;stroke-width:1;" x1="79.7813" x2="79.7813" y1="261.8867" y2="283.8867"/><polygon fill="#181818" points="75.7813,273.8867,79.7813,283.8867,83.7813,273.8867,79.7813,277.8867" style="stroke:#181818;stroke-width:1;"/><line style="stroke:#181818;stroke-width:1;" x1="364.3937" x2="525.0715" y1="261.8867" y2="261.8867"/><line style="stroke:#181818;stroke-width:1;" x1="525.0715" x2="525.0715" y1="261.8867" y2="283.8867"/><polygon fill="#181818" points="521.0715,273.8867,525.0715,283.8867,529.0715,273.8867,525.0715,277.8867" style="stroke:#181818;stroke-width:1;"/><line style="stroke:#181818;stroke-width:1;" x1="79.7813" x2="79.7813" y1="687.3496" y2="867.2598"/><line style="stroke:#181818;stroke-width:1;" x1="79.7813" x2="290.4264" y1="867.2598" y2="867.2598"/><polygon fill="#181818" points="280.4264,863.2598,290.4264,867.2598,280.4264,871.2598,284.4264,867.2598" style="stroke:#181818;stroke-width:1;"/><line style="stroke:#181818;stroke-width:1;" x1="525.0715" x2="525.0715" y1="849.2598" y2="867.2598"/><line style="stroke:#181818;stroke-width:1;" x1="525.0715" x2="314.4264" y1="867.2598" y2="867.2598"/><polygon fill="#181818" points="324.4264,863.2598,314.4264,867.2598,324.4264,871.2598,320.4264,867.2598" style="stroke:#181818;stroke-width:1;"/><line style="stroke:#181818;stroke-width:1;" x1="302.4264" x2="302.4264" y1="229.8867" y2="249.8867"/><polygon fill="#181818" points="298.4264,239.8867,302.4264,249.8867,306.4264,239.8867,302.4264,243.8867" style="stroke:#181818;stroke-width:1;"/><line style="stroke:#181818;stroke-width:1;" x1="302.4264" x2="302.4264" y1="879.2598" y2="899.2598"/><polygon fill="#181818" points="298.4264,889.2598,302.4264,899.2598,306.4264,889.2598,302.4264,893.2598" style="stroke:#181818;stroke-width:1;"/><line style="stroke:#181818;stroke-width:1;" x1="302.4264" x2="302.4264" y1="933.3926" y2="953.3926"/><polygon fill="#181818" points="298.4264,943.3926,302.4264,953.3926,306.4264,943.3926,302.4264,947.3926" style="stroke:#181818;stroke-width:1;"/><!--SRC=[nLJBRjim4BppA_PKo8Vw0-93aQPfeQ81ZCWv5JtGr5fYIoy9SjL4VzyL9RzQ2-cXG6zypEnZPacsx12gdWnyzbkuVq7JiVK47vr_LYgnZgpKpG2ufyOIBXyxkasoBRxxxM8bTyAhM3DMx2CkA-HXrwL2W6IfoPWlNjTmrwBv4RmbNYdoZ11jqx8gJ-TZY05yJ57M2uLKmq1GokwWEC41NspYz6u1t291GNwX06xUUy-9emwmzpMkv2XYGCsoaDj7b58IwP1Qpn1qan40PnKDs_A3PbtvBXffMIZLnCY5PSIfgXptGVAzWKtKb7O-xgy6lMirDRYs0Pr8cO_UGYdC84AjdQR3qJ4Cng_VhcMx3S7rq8M4aTDy0niT6-JbKyRDbluKQl4FGlHDn3GJxjBcaRAU69T13th3Ssjbk8e78MIXnIc5BibHZobRLPA9k4TYxURDCbcrz5SsZGgdV-tIPPGyXPvspXgMSfDtuvj1qbk7zN4UfowdJWJs4y5ClAcTFv9BIuVG4oKkfyLqN-nr3qOxTs7n9lQVSBJuaFFCaBonkulXULNMAN96lwPhfOVUpXxujQ2_F_I1zB-6KaHcIntADCYzw4a6dPYNVvj1gTb_JVOX270rV8y-_080]--></g></svg>